<?xml version="1.0" encoding="UTF-8"?>
<svg xmlns="http://www.w3.org/2000/svg" height="530" width="530" class="pyqrcode"><path transform="scale(10)" stroke="#000" class="pyqrline" d="M4 4.5h7m7 0h1m1 0h1m1 0h4m1 0h1m2 0h2m2 0h1m1 0h2m2 0h1m1 0h7m-45 1h1m5 0h1m1 0h1m2 0h2m3 0h3m1 0h2m2 0h2m4 0h1m1 0h2m1 0h1m2 0h1m5 0h1m-45 1h1m1 0h3m1 0h1m1 0h1m2 0h3m3 0h2m1 0h1m2 0h2m2 0h1m1 0h1m1 0h3m1 0h1m2 0h1m1 0h3m1 0h1m-45 1h1m1 0h3m1 0h1m1 0h1m1 0h2m1 0h2m2 0h2m1 0h2m4 0h2m1 0h1m1 0h3m1 0h2m1 0h1m1 0h3m1 0h1m-45 1h1m1 0h3m1 0h1m1 0h1m2 0h1m2 0h2m1 0h10m3 0h2m2 0h3m1 0h1m1 0h3m1 0h1m-45 1h1m5 0h1m1 0h1m6 0h6m3 0h2m1 0h2m1 0h3m5 0h1m5 0h1m-45 1h7m1 0h1m1 0h1m1 0h1m1 0h1m1 0h1m1 0h1m1 0h1m1 0h1m1 0h1m1 0h1m1 0h1m1 0h1m1 0h1m1 0h1m1 0h1m1 0h7m-35 1h1m1 0h1m1 0h1m3 0h1m1 0h1m3 0h1m2 0h3m2 0h3m1 0h1m-35 1h1m2 0h4m1 0h1m4 0h2m2 0h6m3 0h1m1 0h1m1 0h1m2 0h1m1 0h1m1 0h5m-43 1h2m2 0h1m1 0h2m1 0h1m1 0h3m1 0h2m2 0h2m3 0h2m1 0h2m1 0h1m3 0h1m1 0h1m3 0h2m1 0h1m-45 1h1m4 0h3m1 0h1m1 0h1m7 0h1m1 0h1m1 0h1m2 0h4m3 0h1m1 0h1m1 0h1m2 0h1m1 0h3m-45 1h2m1 0h1m1 0h1m2 0h4m3 0h2m3 0h1m1 0h1m1 0h1m2 0h3m2 0h1m1 0h3m3 0h2m-41 1h2m2 0h2m1 0h1m2 0h3m3 0h4m6 0h1m1 0h2m1 0h4m1 0h2m1 0h1m2 0h2m-45 1h3m7 0h1m2 0h1m2 0h4m1 0h6m1 0h2m3 0h1m1 0h1m1 0h1m1 0h1m2 0h1m1 0h1m-43 1h1m3 0h1m1 0h2m3 0h1m2 0h2m1 0h2m1 0h3m1 0h2m1 0h1m2 0h1m3 0h1m3 0h3m1 0h1m-44 1h1m1 0h1m3 0h2m1 0h9m1 0h2m1 0h3m2 0h1m3 0h1m3 0h2m2 0h2m1 0h2m-44 1h1m2 0h6m2 0h1m1 0h2m4 0h3m3 0h3m1 0h1m1 0h1m1 0h2m4 0h1m-40 1h4m4 0h2m1 0h4m1 0h1m2 0h1m2 0h1m1 0h2m5 0h2m1 0h1m1 0h1m1 0h1m2 0h1m1 0h1m-43 1h1m1 0h4m2 0h1m3 0h1m2 0h2m1 0h2m3 0h1m1 0h1m2 0h1m2 0h1m1 0h3m1 0h1m1 0h1m2 0h1m-45 1h3m1 0h1m3 0h1m2 0h2m1 0h7m5 0h5m1 0h1m1 0h2m1 0h1m2 0h2m1 0h1m-44 1h1m1 0h1m1 0h6m1 0h3m2 0h2m1 0h6m1 0h4m2 0h1m1 0h8m-40 1h3m3 0h1m1 0h1m1 0h1m1 0h1m3 0h1m1 0h1m3 0h3m2 0h2m1 0h2m1 0h2m3 0h1m3 0h1m-44 1h1m2 0h1m1 0h1m1 0h1m2 0h2m1 0h1m1 0h1m2 0h2m1 0h1m1 0h1m1 0h2m1 0h5m1 0h2m1 0h1m1 0h2m2 0h1m-45 1h3m1 0h1m3 0h3m3 0h1m2 0h4m3 0h1m2 0h2m4 0h1m2 0h1m3 0h2m1 0h1m-40 1h5m2 0h1m1 0h4m1 0h1m1 0h10m1 0h2m1 0h8m-41 1h1m1 0h2m3 0h3m2 0h3m2 0h4m2 0h1m1 0h1m2 0h5m1 0h1m1 0h1m1 0h1m1 0h2m1 0h1m-45 1h1m1 0h1m1 0h1m1 0h2m3 0h2m1 0h1m1 0h2m2 0h4m1 0h1m4 0h1m2 0h1m2 0h1m1 0h2m2 0h1m1 0h1m-45 1h3m1 0h2m1 0h3m9 0h1m1 0h2m1 0h6m2 0h10m1 0h1m-42 1h1m1 0h1m1 0h2m2 0h1m2 0h4m2 0h3m1 0h1m2 0h1m1 0h1m2 0h2m2 0h4m2 0h1m2 0h1m-44 1h4m2 0h1m3 0h5m3 0h1m2 0h1m2 0h2m4 0h3m1 0h3m1 0h1m2 0h3m-45 1h1m3 0h1m1 0h1m4 0h5m1 0h1m1 0h1m1 0h1m5 0h1m2 0h1m1 0h2m1 0h2m1 0h3m1 0h1m1 0h1m-45 1h1m2 0h2m2 0h3m3 0h3m1 0h1m1 0h1m1 0h1m3 0h2m1 0h1m1 0h1m1 0h2m1 0h5m1 0h1m1 0h1m-44 1h1m1 0h1m1 0h4m1 0h1m1 0h1m3 0h1m1 0h1m1 0h1m2 0h5m1 0h2m2 0h1m1 0h4m6 0h1m-44 1h1m2 0h1m2 0h1m1 0h1m1 0h1m1 0h5m1 0h2m1 0h2m1 0h7m1 0h1m1 0h1m1 0h1m1 0h1m1 0h1m2 0h1m-41 1h1m1 0h1m4 0h1m2 0h1m1 0h1m2 0h1m2 0h1m2 0h2m1 0h1m1 0h1m2 0h1m1 0h2m1 0h1m2 0h4m-44 1h4m3 0h1m2 0h1m9 0h3m3 0h2m1 0h1m1 0h5m1 0h1m2 0h1m1 0h2m-45 1h1m2 0h2m1 0h2m1 0h1m1 0h2m1 0h1m1 0h1m1 0h10m2 0h4m1 0h6m-33 1h1m1 0h1m4 0h2m2 0h2m3 0h1m2 0h1m4 0h1m2 0h2m3 0h3m1 0h1m-45 1h7m1 0h3m1 0h1m1 0h4m1 0h2m1 0h1m1 0h2m1 0h3m1 0h3m2 0h1m1 0h1m1 0h3m1 0h1m-45 1h1m5 0h1m1 0h2m1 0h1m1 0h3m3 0h2m3 0h1m3 0h1m2 0h4m1 0h1m3 0h1m2 0h2m-45 1h1m1 0h3m1 0h1m2 0h1m2 0h1m1 0h1m3 0h7m1 0h1m1 0h3m1 0h2m1 0h7m1 0h2m-45 1h1m1 0h3m1 0h1m2 0h1m1 0h2m4 0h1m1 0h1m3 0h2m1 0h1m3 0h2m1 0h1m1 0h2m3 0h1m2 0h2m-45 1h1m1 0h3m1 0h1m1 0h2m1 0h1m2 0h1m1 0h1m2 0h2m1 0h1m3 0h2m4 0h2m2 0h1m3 0h1m1 0h3m-45 1h1m5 0h1m2 0h4m1 0h1m4 0h1m2 0h2m3 0h2m1 0h1m1 0h2m1 0h1m5 0h1m-42 1h7m2 0h1m2 0h1m4 0h4m1 0h1m1 0h6m1 0h5m8 0h1"/></svg>
